<svg xmlns="http://www.w3.org/2000/svg" width="2105.7087" height="353.9188" viewBox="0 0 2105.7087 353.9188">
    <g id="LogoV">
        <g id="logo">
            <path
                d="M354.2159,176.9785A177.2313,177.2313,0,0,1,265.453,330.4061l-2.0455-14.7909.2921-.04-2.7243-19.1394-.2158.0314-4.3742-31.6415-3.81-27.5647a96.6126,96.6126,0,1,0-150.95-.02l-3.8123,27.5782-4.0055,28.9775-.1259-.0179L90.9569,312.92l.2045.0291L88.75,330.3971A177.0914,177.0914,0,1,1,354.2159,176.9785Z"
            />
            <g id="The_I" data-name="The I">
                <g id="Point">
                    <path
                        d="M239.2549,176.9785A62.147,62.147,0,1,1,177.108,114.877,62.1322,62.1322,0,0,1,239.2549,176.9785Z"
                    />
                </g>
                <g id="Base">
                    <path
                        d="M235.5439,344.0514a177.9539,177.9539,0,0,1-116.8807-.0045l3.6167-26.1631,2.2928-16.5855.436-3.0683-.0113-.0022,5.3363-38.6113a94.9826,94.9826,0,0,0,93.5373.0113l8.0539,58.256Z"
                    />
                </g>
            </g>
        </g>
        <g id="Text">
            <g id="Text-I">
                <g id="point-2" data-name="point">
                    <path
                        d="M477.4934,126.3166a26.0591,26.0591,0,1,1-26.0591-26.0591A26.0681,26.0681,0,0,1,477.4934,126.3166Z"
                    />
                </g>
                <path
                    id="base-2"
                    data-name="base"
                    d="M486.2621,224.2546a78.44,78.44,0,0,1-69.6557-.0037l2.1554-21.62,1.3664-13.7057.26-2.5355-.0068-.0018,3.18-31.9069c8.2344,6.4779,17.7495,10.179,27.8754,10.179,10.1233,0,19.6344-3.6974,27.8687-10.17l4.8,48.1407Z"
                />
            </g>
            <path
                id="Text-M"
                d="M625.1526,227.1372l-.3614-67.1181-32.5644,54.6357h-15.92L543.924,161.8286v65.3086H510.8176V100.5h29.4883L584.81,173.5874,628.2278,100.5H657.716l.3623,126.6377Z"
            />
            <path
                id="Text-P"
                d="M771.1467,106.1987a44.2867,44.2867,0,0,1,19.5381,16.2823q6.873,10.582,6.875,24.875,0,14.2925-6.875,24.7842a44.5006,44.5006,0,0,1-19.5381,16.1914q-12.6651,5.7-29.8506,5.6992h-22.07v33.1064h-35.82V100.5h57.8906Q758.4816,100.5,771.1467,106.1987ZM755.77,161.0142q5.6046-4.7916,5.6075-13.6582,0-8.8623-5.6075-13.7491-5.61-4.8852-16.6445-4.8847H719.2258v37.0859h19.8994Q750.1584,165.8081,755.77,161.0142Z"
            />
            <path
                id="Text-A"
                d="M893.4426,202.5337h-53.55l-9.95,24.6035H793.3987L849.3,100.5h35.2783L940.66,227.1372H903.3928Zm-10.4932-26.4131-16.2812-40.5244L850.386,176.1206Z"
            />
            <path
                id="Text-C1"
                d="M976.39,221.2573a62.8724,62.8724,0,0,1-24.875-23.4277q-9.05-15.0147-9.045-34.0107,0-18.9962,9.045-34.0118a62.9,62.9,0,0,1,24.875-23.4277q15.829-8.4126,35.73-8.4121a76.7307,76.7307,0,0,1,31.2969,6.15,60.2519,60.2519,0,0,1,23.1562,17.73l-22.7949,20.624q-12.3047-14.8316-29.85-14.835a36.8537,36.8537,0,0,0-18.3633,4.5235,31.3992,31.3992,0,0,0-12.4824,12.7539,42.5408,42.5408,0,0,0,0,37.81,31.3687,31.3687,0,0,0,12.4824,12.7539,36.8322,36.8322,0,0,0,18.3633,4.5225q17.546,0,29.85-14.835l22.7949,20.6241a60.1956,60.1956,0,0,1-23.1562,17.73,76.7308,76.7308,0,0,1-31.2969,6.1513Q992.2166,229.67,976.39,221.2573Z"
            />
            <path id="Text-T" d="M1108.363,128.9028h-38.8965V100.5h113.4317v28.4033h-38.7149v98.2344h-35.82Z" />
            <path
                id="Text-O1"
                d="M1276.697,221.1675a64.7515,64.7515,0,0,1,0-114.6973q16.0107-8.5019,36.0918-8.5029t36.0918,8.5029a64.7515,64.7515,0,0,1,0,114.6973q-16.0107,8.5049-36.0918,8.5029Q1292.7058,229.67,1276.697,221.1675Zm53.459-25.6895a32.5275,32.5275,0,0,0,12.3008-12.7539,41.7683,41.7683,0,0,0,0-37.81A32.5608,32.5608,0,0,0,1330.156,132.16a35.6048,35.6048,0,0,0-34.7364,0,32.5331,32.5331,0,0,0-12.3007,12.7539,41.7675,41.7675,0,0,0,0,37.81A32.5,32.5,0,0,0,1295.42,195.478a35.6117,35.6117,0,0,0,34.7364,0Z"
            />
            <path id="Text-F" d="M1437.7966,128.1792v27.86h55.9v27.6787h-55.9v43.4189h-35.82V100.5h99.3183v27.68Z" />
            <path
                id="Text-C2"
                d="M1598.17,221.2573a62.8737,62.8737,0,0,1-24.875-23.4277q-9.05-15.0147-9.0449-34.0107,0-18.9962,9.0449-34.0118a62.9016,62.9016,0,0,1,24.875-23.4277q15.8292-8.4126,35.7305-8.4121a76.7307,76.7307,0,0,1,31.2969,6.15,60.2526,60.2526,0,0,1,23.1562,17.73l-22.7949,20.624q-12.3046-14.8316-29.85-14.835a36.8537,36.8537,0,0,0-18.3633,4.5235,31.3992,31.3992,0,0,0-12.4824,12.7539,42.5408,42.5408,0,0,0,0,37.81,31.3687,31.3687,0,0,0,12.4824,12.7539,36.8322,36.8322,0,0,0,18.3633,4.5225q17.5459,0,29.85-14.835l22.7949,20.6241a60.1964,60.1964,0,0,1-23.1562,17.73A76.7308,76.7308,0,0,1,1633.9,229.67Q1613.9958,229.67,1598.17,221.2573Z"
            />
            <path
                id="Text-O2"
                d="M1729.3279,221.1675a64.7515,64.7515,0,0,1,0-114.6973q16.0107-8.5019,36.0917-8.5029t36.0918,8.5029a64.7515,64.7515,0,0,1,0,114.6973q-16.0107,8.5049-36.0918,8.5029Q1745.34,229.67,1729.3279,221.1675Zm53.4589-25.6895a32.5186,32.5186,0,0,0,12.3028-12.7539,41.784,41.784,0,0,0,0-37.81,32.5519,32.5519,0,0,0-12.3028-12.7539,35.6007,35.6007,0,0,0-34.7343,0,32.5252,32.5252,0,0,0-12.3028,12.7539,41.784,41.784,0,0,0,0,37.81,32.492,32.492,0,0,0,12.3028,12.7539,35.6076,35.6076,0,0,0,34.7343,0Z"
            />
            <path
                id="Text-D"
                d="M1854.6071,100.5h59.8809q20.8036,0,36.9063,7.7793a58.6248,58.6248,0,0,1,24.9648,22.0713q8.8623,14.2939,8.8652,33.4688,0,19.1777-8.8652,33.4677a58.5806,58.5806,0,0,1-24.9648,22.0713q-16.1046,7.7813-36.9063,7.7793h-59.8809Zm58.4336,98.0537q16.2832,0,26.1426-9.2265t9.8594-25.5078q0-16.2818-9.8594-25.5088-9.8643-9.2256-26.1426-9.2266h-22.6132v69.47Z"
            />
            <path
                id="Text-E"
                d="M2105.7087,199.4575v27.68h-101.67V100.5h99.3183v27.68h-63.8613v21.3477H2095.76v26.7744h-56.2637v23.1562Z"
            />
        </g>
    </g>
</svg>
