<svg width="382" height="196" viewBox="0 0 382 196" fill="none" xmlns="http://www.w3.org/2000/svg">
<g clip-path="url(#clip0)">
<path fill-rule="evenodd" clip-rule="evenodd" d="M381.508 0.708008H216.217L216.094 16.4112L285.474 14.0045C297.895 9.52024 310.884 7.66301 322.867 7.89135C344.165 6.8261 352.483 11.5086 352.483 11.5086L359.576 63.9222C359.576 63.9222 351.85 55.5768 327.113 55.9642C321.358 55.9644 315.661 57.1196 310.36 59.3613C305.06 61.603 300.263 64.8857 296.253 69.0149C292.244 73.1442 289.103 78.0362 287.018 83.4012C284.932 88.7661 283.945 94.4951 284.113 100.249C284.571 122.277 302.987 138.39 326.768 139.535C353.821 137.333 359.568 133.095 359.568 133.095L356.478 183.717C344.284 187.052 331.601 188.229 319.002 187.195C313.487 186.643 303.55 184.99 292.201 181.29L214.83 178.287L214.694 195.708H381.508V0.708008ZM267.912 170.534C259.035 165.346 250.519 158.654 243.622 150.064L215.058 149.021L214.883 171.428L267.912 170.534ZM203.536 171.619L200.801 148.5L144.097 146.431L147.04 172.572L203.536 171.619ZM148.483 185.383L147.389 175.67L204.276 177.877L204.89 183.065L148.483 185.383ZM108.668 173.219L120.001 145.551L90.2574 144.465L120.814 143.566L134.516 110.113L80.4408 108.11L136.211 105.974L138.823 99.5965L139.527 105.847L195.502 103.704L192.796 80.8258L81.7977 75.64C81.7977 75.64 91.9916 75.2034 107.08 74.5542L97.2576 47.9973L82.4878 47.5135L96.8656 46.9375L87.3281 21.1518L87.2281 20.8814L83.1882 9.9591L30.2555 9.94485L0.505859 183.065H61.1615L69.6618 102.299L97.453 173.408L91.6311 173.506L97.5816 173.737L102.891 187.323L108.286 174.152L97.5816 173.737L97.453 173.408L108.668 173.219ZM143.699 142.893L199.942 141.239L196.532 112.411L140.031 110.318L143.699 142.893ZM215.123 140.793L236.93 140.151C232.675 132.539 229.62 123.742 228.32 113.588L215.339 113.107L215.123 140.793ZM215.418 102.941L227.625 102.474C227.624 101.738 227.632 100.997 227.649 100.249C227.788 93.9736 228.344 88.0726 229.271 82.5299L215.583 81.8904L215.418 102.941ZM239.332 52.6507C236.611 57.6281 234.29 63.0782 232.448 69.0286C231.17 69.1137 224.936 69.4053 215.677 69.8217L215.817 51.8805L239.332 52.6507ZM189.27 51.011L118.474 48.6922L108.79 74.4807C131.814 73.4898 165.274 72.0451 191.621 70.8882L189.27 51.011ZM188.354 43.2723L119.473 46.0318L128.457 22.1103L186.01 23.4516L188.354 43.2723ZM247.122 40.918L215.893 42.169L216.034 24.1513L263.734 25.2629H263.742C257.66 29.5704 252.035 34.7594 247.122 40.918ZM185.303 17.4793L184.412 9.94485H133.026L129.469 19.4161L185.303 17.4793Z" fill="white"/>
</g>
<defs>
<clipPath id="clip0">
<rect width="381" height="195" fill="white" transform="translate(0.505859 0.708008)"/>
</clipPath>
</defs>
</svg>
