<svg id="Loader" xmlns="http://www.w3.org/2000/svg" width="400" height="400" viewBox="450 0 800 700">
    <defs>
        <style>
            .cls-1 {
                fill: #40cd7d;
            }
            #The_I {
                fill: #fff;
            }
        </style>
    </defs>
    <path
        class="cls-1"
        d="M1198.3284,353.7773a354.2764,354.2764,0,0,1-177.3061,306.6994l-4.0859-29.5666.5836-.0808-5.442-38.2595-.431.0629-8.7375-63.2509L995.299,474.28a192.1818,192.1818,0,0,0,42.2375-120.503c0-106.58-86.4014-192.9853-192.9854-192.9853S651.5658,247.1978,651.5658,353.7773A192.1764,192.1764,0,0,0,693.7719,474.24l-7.615,55.1283-8.0012,57.9257-.2514-.0359-5.442,38.2639.4087.0584-4.8178,34.8784a353.9124,353.9124,0,1,1,530.2752-306.6815Z"
    />
    <g id="The_I" data-name="The I">
        <path
            id="Point"
            d="M968.6911,353.7773a124.14,124.14,0,1,1-124.14-124.14A124.1836,124.1836,0,0,1,968.6911,353.7773Z"
        />
        <path
            id="Base"
            d="M961.2782,687.7536a355.2225,355.2225,0,0,1-233.4718-.009l7.2243-52.3,4.58-33.1542.8711-6.1334-.0226-.0044L751.1185,518.97a189.6091,189.6091,0,0,0,186.8429.0224l16.0878,116.453Z"
        />
    </g>
</svg>
