<svg xmlns="http://www.w3.org/2000/svg" width="328" height="275" fill="none"  xmlns:v="https://vecta.io/nano"><path d="M56.714 49.861S46.48 65.699 42.791 69.142s-22.787 28.85-25.686 32.343-6.805 10.322-6.805 10.322 11.916-10.198 14.187-13.246 19.964-20.928 24.43-27.232 13.75-18.053 13.75-18.053 12.027 9.675 18.589 13.274 23.273 14.293 26.891 16.867 2.031 2.166 1.712 2.912 4.26 3.912 4.26 3.912a120.62 120.62 0 0 1-7.166 19.822c-4.751 10.091-10.35 30.192-13.149 35.456S80.87 176.457 80.87 176.457L99.31 140.88c2.348-5.367 6.768-13.1 6.768-13.1l-6.626 25.002c-.845 2.698-2.017 8.363-2.017 8.363s8.827-18.641 10.965-24.803 7.529-24.796 8.653-30.757l1.78-8.764s.224-1.079 4.247-.961 8.941.969 11.437 2.194 9.837 2.832 15.817 5.477 15.296 7.168 15.296 7.168-.473 6.514-2.837 17.412-4.844 26.121-7.085 34.432-4.322 21.601-4.349 21.431 8.863-24.609 12.127-37.299 6.167-27.413 6.766-29.725 1.096-4.739 1.953-4.828 8.995 4.138 15.036 5.772 11.778 3.84 11.778 3.84l-9.3 31.64c-2.041 8.193-13.073 42.147-15.291 47.233s-6.481 21.152-6.481 21.152 14.238-31.794 18.337-43.569 15.811-50.918 17.053-52.875 1.829-1.019 7.716.426l28.194 6.824c6.546 1.416 12.806 2.434 13.582 4.595s5.876 46.606 6.334 54.332 5.026 47.767 5.164 47.231-.331-41.653-1.097-47.566-2.079-38.219-2.78-44.657-.451-6.255-.451-6.255l12.505 6.673c4.633 2.375 10.1 4.914 10.044 4.553s-6.265-5.798-8.665-8.002l-5.414-5.048s12.756 1.634 16.271 1.532 28.116-6.065 28.116-6.065-9.713-.115-14.347-1.141-4.349-1.69-4.742-2.543-4.715-13.329-5.059-14.712-1.579 14.302-1.54 14.556-13.499-.613-19.598-1.498-18.262-2.706-22.685-4.852c-3.076-1.586-5.98-3.485-8.666-5.668l7.746-18.04-9.415 11.465c.023-.134 1.272-17.126.825-20.582a34.83 34.83 0 0 1-.236-6.318s-1.63 8.608-2.714 11.169-1.768 12.503-2.851 16.195-2.289 5.185-2.41 5.247-1.888-2.363-1.888-2.363-.316 2.747-1.98 2.96-10.148-1.174-13.189-2.271-6.68-2.101-7.376-2.951l-1.692-2.089s-4.606 1.89-11.623-.988-12.727-5.477-12.727-5.477 4.459-6.913 6.029-11.116 2.371-5.502 2.371-5.502-4.765 4.087-7.491 6.728-7.12 9.413-7.686 8.847-7.468-4.112-11.946-6.337-7.567-4.75-8.097-5.365-2.009-1.474-1.887-2.929 6.403-17.701 6.403-17.701l-11.403 15.776c-.662.496-2.875-.296-3.848.159s-2.079 1.192-3.911.604-12.273-5.633-15.874-7.818-11.345-6.125-12.979-7.395-6.709-5.666-6.964-6.758 4.738-4.257 6.621-6.724 6.165-8.83 6.165-8.83-6.422 5.475-7.514 5.731c-1.191.36-2.36.787-3.501 1.281l11.37-20.775s-11.109 11.204-12.526 13.294-6.973 8.389-7.728 8.854-2.57.267-3.172-.25-2.276-.649-3.712-.645-11.314-5.346-12.469-5.777-4.42-3.538-4.459-3.792 4.28-11.456 5.23-13.474-6.01 5.89-7.839 7-4.794 1.911-9.158 8.789z" fill="#5b7e78"/></svg>