<svg xmlns="http://www.w3.org/2000/svg" width="277" height="294" fill="none"  xmlns:v="https://vecta.io/nano"><path d="M274.384 79.296l.572-15.501-4.421-12.529c-.475-1.185-10.86-30.277-11.005-31.103s-3.697-11.118-3.697-11.118 2.049 12.484 2.964 15.761 5.521 17.974 6.55 21.73 4.791 14.273 5.016 15.231 2.141 6.435 2.141 6.435 1.329 2.643.755 4.135-1.755 3.048-2.758 3.271-4.548 1.389-5.118 1.627-4.275 1.01-4.275 1.01-2.716-2.565-2.543-2.558 2.964-4.171 3.241-4.636 1.002-1.787 1.002-1.787c-.748.171-1.439.531-2.006 1.048-.877.833-4.023 3.945-4.023 3.945s-12.607-8.218-14.193-10.048-6.507-4.983-6.507-4.983-.882-.091-.903.459 2.388 3.04 3.637 4.385 7.093 6.717 8.768 7.723 6.92 4.998 6.801 5.033-5.998 6.293-5.998 6.293-3.722.06-5.774.732l-6.577 2.257s-1.272-.204-1.579-.432.481-2.895.481-2.895l-2.541 1.638s-1.825-1.721-1.823-2.862-.11-6.617-.543-8.226-1.732-7.464-2.069-10.054-4.253-20.762-4.41-25.589-2.034-14.225-2.034-14.225l.015 10.785s.624 12.441 1.903 20.458 2.793 18.185 3.106 21.907.308 5.376.29 5.869-10.35-7.42-11.987-8.773-10.441-7.973-11.094-8.559-3.926-3.436-4.28-3.551-.842-.108-.367.933 5.511 6.65 8.395 8.931 13.816 11.792 15.403 12.465 3.008 2.362 2.308 3.309-5.076 3.753-7.94 5.08-6.94 4.349-11.582 6.046-5.953 2.569-6.756 2.13-1.279.004-2.161-1.794-7.113-12.491-8.075-14.829-5.583-10.26-6.41-12.107-8.534-16.279-8.534-16.279 3.682 11.162 7.085 18.093 10.487 22.977 11.728 24.711 1.919 3.473 1.651 4.487-.326 1.191-1.033 1.651-3.648 1.81-5.977 3.208-4.974 2.375-5.718 1.734-1.885-.914-2.821-2.585-10.479-16.939-14.635-23.565-12.634-20.933-13.826-23.995-5.583-9.57-5.583-9.57 3.07 6.969 4.159 10.029 8.758 17.822 11.511 22.247 11.237 20.438 13.394 23.367 2.71 4.755 2.71 4.755a8.27 8.27 0 0 1 .123 2.232c-.135.89-6.84 6.477-12.67 10.56s-11.67 7.756-11.67 7.756a9.85 9.85 0 0 0-.381-1.472c-.167-.339-1.68 1.141-2.117 1.201s-7.549-6.878-10.212-8.895-14.403-13.221-16.562-15.04-24.264-21.234-24.264-21.234l11.986 12.85c1.393 1.791 10.18 10.481 16.398 16.006s17.111 16.108 17.111 16.108 1.727 1.036 1.442 1.819-3.983 1.183-3.983 1.183-.551.364-.303.553 3.183 1.806 3.183 1.806l-5.169 5.617c-1.408 1.483-4.041 4.123-4.041 4.123s-8.397-7.472-9.992-10.013-14.28-16.541-15.994-18.626-5.26-5.131-5.26-5.131 4.614 8.101 6.138 9.769 9.974 14.003 13.152 17.318 8.993 10.054 8.993 10.054-6.999 5.933-9.837 9.359-10.957 11.979-12.865 13.802-1.493.942-1.892.672-2.762 2.047-2.762 2.047c-3.769-1.818-7.371-3.963-10.765-6.409-5.357-3.907-16.461-9.433-19.219-11.658s-16.607-11.025-16.607-11.025l18.695 14.76c2.869 1.974 6.887 5.422 6.887 5.422l-13.85-6.676c-1.48-.796-4.655-2.116-4.655-2.116s9.889 7.246 13.246 9.186 13.627 7.18 16.981 8.506l4.916 2.023s.605.252.084 2.587-1.57 5.11-2.565 6.43-2.758 5.424-4.974 8.617-5.902 8.123-5.902 8.123-3.749-1.008-9.845-3.612-14.703-5.761-19.302-8.003-12.123-4.95-12.021-4.946 13.369 7.938 20.41 11.268 15.309 6.679 16.59 7.289 2.643 1.172 2.599 1.682-3.425 4.786-5.058 8.128-3.564 6.444-3.564 6.444-12.871-6.871-17.424-8.983-23.133-12.365-25.852-14.231-11.618-6.159-11.618-6.159 16.959 11.882 23.371 15.598 27.945 14.948 28.948 15.893.389 1.182-1.115 4.456l-7.15 15.691c-1.562 3.661-2.859 7.201-4.208 7.411s-27.864-1.805-32.425-2.406-28.447-2.432-28.149-2.291 24.35 4.486 27.887 4.703 22.543 3.079 26.379 3.394 3.702.439 3.702.439l-5.3 6.549c-1.907 2.438-4.003 5.344-3.786 5.352s4.088-3.006 5.644-4.159l3.555-2.593s-2.386 7.262-2.722 9.325.382 17.093.382 17.093 1.158-5.657 2.277-8.246 1.475-2.349 2.017-2.483 8.31-1.254 9.156-1.3-8.171-2.528-8.324-2.534 1.874-7.811 3.076-11.271 3.631-10.356 5.38-12.696a29.8 29.8 0 0 1 4.282-4.422l9.66 6.547-5.634-6.783c.076.028 9.854 2.666 11.921 2.793a20.81 20.81 0 0 1 3.714.572s-4.841-1.918-6.215-2.838-7.099-2.437-9.133-3.484-2.769-1.918-2.792-1.996 1.591-.836 1.591-.836-1.568-.493-1.506-1.489 1.825-5.791 2.807-7.443 1.977-3.663 2.551-3.974l1.409-.753s-.586-2.901 1.882-6.673 4.627-6.814 4.627-6.814 3.534 3.379 5.811 4.768 2.945 2.002 2.945 2.002-1.851-3.241-3.086-5.129-4.694-5.213-4.301-5.479 3.239-3.898 5.041-6.262 3.623-3.883 4.041-4.123 1.086-1.007 1.922-.773 9.613 5.726 9.613 5.726l-7.928-8.428c-.215-.442.496-1.645.34-2.264s-.462-1.347.087-2.351 4.666-6.531 6.346-8.387 4.85-5.934 5.775-6.745 4.06-3.28 4.727-3.307 1.952 3.245 3.181 4.621 4.461 4.59 4.461 4.59-2.474-4.364-2.501-5.03c-.076-.735-.194-1.465-.354-2.187l10.85 8.97s-5.292-7.742-6.353-8.804-4.114-5.013-4.3-5.506.133-1.53.502-1.823.635-1.256.794-2.095 4.391-6.003 4.772-6.629 2.562-2.182 2.715-2.177 6.206 3.785 7.277 4.567-2.763-4.17-3.205-5.362-1.352-2.89-.275-3.643 7.577-6.373 10.006-8.406 10.826-8.426 12.562-9.028 4.001-.98 5.237-1.188a19.29 19.29 0 0 1 2.337-.247l8.557 10.088s-4.408-8.81-4.79-10.256-1.78-3.059-1.531-3.587 4.603-1.34 4.501-1.344-3.587-.567-3.587-.567 4.263-4.653 6.161-5.453 7.313-4.054 9.35-5.846 5.009-3.321 6.242-3.48 3.011-1.168 3.011-1.168l6.449 9.678-2.598-12.12s2.012-1.819 3.237-1.774 5.841-1.601 6.976-1.866 2.713-.718 3.705.136l5.628 4.864s-4.197-6.193-3.236-7.309 2.599-.39 3.079-.219c.482.203.952.434 1.407.692l-2.102-1.971c1.215-.97 2.496-1.855 3.833-2.647 1.698-.935 7.903-4.084 11.715-4.787l9.97-1.884c.846-.046 1.666-.067 2.125.642s3.948 8.818 3.948 8.818-1.18-8.256-.667-9.67 3.012-3.982 5.074-4.393 4.191-.782 4.92-.338 3.385 9.624 3.385 9.624 1.147-9.065 1.455-9.694c.097-.185.24-.342.415-.456s.376-.182.584-.197l1.3 1.506a11.25 11.25 0 0 0 1.118.911s-1.919-2.757-1.906-3.115 2.95-2.296 4.315-2.553c1.129-.176 2.268-.274 3.409-.294z" fill="#5b7e78"/></svg>