<svg xmlns="http://www.w3.org/2000/svg" width="186" height="218" fill="none"  xmlns:v="https://vecta.io/nano"><path d="M119.263 29.534l4.615 2.926c10.616 6.746 38.412 24.527 41.485 27.662 3.831 3.909 20.616 23.029 20.616 23.029s-25.718-19.662-31.347-21.997-38.454-23.274-38.454-23.274l11.619 60.841c1.154 9.38 8.168 38.079 8.645 47.315s.847 25.372.847 25.372-10.213-53.992-13.025-62.645-11.599-35.105-12.581-44.324-2.942-22.61-5.081-26.239c-.449-.689-2.594-3.814-2.591-3.711s-5.865 4.671-5.865 4.671l1.427-6.647c-.065-.08-.743-.656-.743-.656s-5.256-.189-6.819.497-8.964 4.241-14.261 5.687-11.233 2.777-11.233 2.777L55.89 54.944s16.223 11.012 21.524 15.092 25.36 24.16 25.36 24.16-21.722-15.584-32.142-21.034-20.496-11.456-20.496-11.456L37.119 74.826l8.055-16.534-6.111-3.962-22.319 6.556c-1.236 1.355-2.331 2.832-3.268 4.409-1.335 2.342-2.178 5.314-1.851 6.305s10.319 25.039 11.035 27.135 4.128 10.758 4.946 12.321 4.937 7.501 5.077 8.54 11.153 32.929 12.825 36.496 17.459 50.138 17.682 52.978l.642 8.081-9.096-21.959c-.528-1.69-13.715-31.521-13.715-31.521s-13.099-36.019-15.425-38.709-6.54-14.152-6.54-14.152L9.028 87.351S1.616 72.66 1.331 69.138.82 53.848.82 53.848s11.7-1.423 14.366-2.185 9.499-4.605 9.526-5.894-5.193-7.319-5.054-7.324 9.293 5.301 9.293 5.301l-.62-18.578.355-13.301s4.912 19.791 7.091 22.777 1.584 5.225 3.08 5.941 9.206.559 12.959-1.678 8.808-7.825 8.629-9.645l-1.806-17.078c-.118-.055 9.929 15.158 10.284 15.205s5.573-.659 5.573-.659 4.312.386 10.658-1.77 18.966-6.995 18.966-6.995 9.709-2.798 12.612-5.016S127.757.978 127.757.978s-8.44 18.835-8.395 20.188 3.902 3.992 3.902 3.992l-6.098.793 2.092 3.572.005.01z" fill="#5b7e78"/></svg>