<svg xmlns="http://www.w3.org/2000/svg" width="1300" height="1314" fill="none"  opacity=".2" xmlns:v="https://vecta.io/nano"><path d="M1349.82 1607.23c343.73-198.25 460.93-638.34 261.79-982.966-199.15-344.625-639.239-463.286-982.969-265.035S167.705 997.568 366.852 1342.19c199.147 344.63 639.238 463.29 982.968 265.04z" fill="#0d1b28"/><path d="M1349.67 1607.07c279.28-161.07 374.51-518.65 212.7-798.654s-519.38-376.421-798.658-215.342-374.511 518.646-212.704 798.656 519.382 376.42 798.662 215.34z" fill="#4c577b"/><path d="M1349.52 1606.92c214.83-123.91 288.08-398.96 163.62-614.354-124.47-215.391-399.53-289.554-614.357-165.647S610.698 1225.88 735.165 1441.27s399.525 289.56 614.355 165.65z" fill="#bdcfcf"/></svg>