<svg xmlns="http://www.w3.org/2000/svg" width="395" height="804" fill="none"  xmlns:v="https://vecta.io/nano"><path d="M157.857 455.519a72.78 72.78 0 0 1-24.095 15.785c-9.015 3.612-18.682 5.401-28.448 5.265-19.723-.273-38.654-8.371-52.627-22.51s-21.845-33.163-21.884-52.885 7.76-38.528 21.679-52.28c28.903-28.744 74.989-29.274 104.193.088" stroke="#5b7e78" stroke-width="12" stroke-miterlimit="10"/><path d="M70.733 365.3c-6.969 6.931-11.693 15.806-13.576 25.502s-.838 19.778 3.001 28.971 10.3 17.085 18.566 22.677 17.966 8.633 27.873 8.738 19.576-2.729 27.785-8.146a48.97 48.97 0 0 0 18.333-22.283c3.744-9.113 4.683-19.174 2.7-28.911s-6.8-18.714-13.842-25.793c-9.442-9.494-22.211-14.907-35.496-15.049s-25.998 5.001-35.343 14.294zm45.45 45.697c-1.928 1.917-4.39 3.21-7.075 3.716s-5.472.202-8.009-.874a14.18 14.18 0 0 1-6.243-5.171c-1.534-2.295-2.359-4.983-2.373-7.723a13.68 13.68 0 0 1 2.298-7.672 13.55 13.55 0 0 1 6.194-5.034c2.526-1.02 5.311-1.263 8.001-.699s5.165 1.913 7.111 3.872a14.07 14.07 0 0 1 4.102 9.837c.018 3.673-1.423 7.179-4.006 9.748z" fill="#5b7e78"/><path d="M156.675 348.982l53.858 54.151-52.676 52.386m52.626-52.198l214.73 215.896M213.894 399.79l212.514-211.347" stroke="#5b7e78" stroke-width="12" stroke-miterlimit="10"/></svg>