<svg xmlns="http://www.w3.org/2000/svg" width="344" height="153" fill="none"  xmlns:v="https://vecta.io/nano"><path d="M146.965 76.304C146.965 37.476 115.409 6 76.482 6S6 37.476 6 76.304s31.556 70.304 70.482 70.304 70.483-31.476 70.483-70.303z" stroke="#5b7e78" stroke-width="12" stroke-miterlimit="10"/><path d="M29.028 75.041a47.25 47.25 0 0 0 7.998 26.299 47.43 47.43 0 0 0 21.298 17.435c8.672 3.583 18.214 4.52 27.42 2.694s17.662-6.335 24.299-12.956 11.157-15.054 12.988-24.237.891-18.7-2.7-27.35-9.675-16.043-17.479-21.244-16.98-7.978-26.366-7.978a47.52 47.52 0 0 0-33.557 13.865c-8.9 8.877-13.9 20.918-13.9 33.472zm60.581 0a13.07 13.07 0 0 1-2.212 7.275 13.12 13.12 0 0 1-5.891 4.822c-2.399.991-5.038 1.25-7.585.744s-4.885-1.753-6.721-3.584-3.085-4.165-3.592-6.705a13.06 13.06 0 0 1 .748-7.565 13.1 13.1 0 0 1 4.836-5.875 13.15 13.15 0 0 1 7.294-2.205c3.481.001 6.819 1.381 9.28 3.836s3.844 5.785 3.844 9.257z" fill="#5b7e78"/><path d="M73.522 146.607h270.395" stroke="#5b7e78" stroke-width="12" stroke-miterlimit="10"/></svg>