<svg xmlns="http://www.w3.org/2000/svg" width="53" height="53"  xmlns:v="https://vecta.io/nano"><path d="M48.157 6.676v39.183c-.007.084-.046.163-.109.219a2.08 2.08 0 0 1-1.97 1.97H34.586V31.192h5.363c.328 0 .328 0 .438-.328l.328-2.736.438-3.283c.219-1.094 0-.328-.219-.328h-6.348v-4.269c0-.328.109-.766.109-1.094a1.97 1.97 0 0 1 1.751-1.751l1.423-.219h3.283c.219 0 .219 0 .219-.219v-5.578c0-.109 0-.219-.219-.219h-5.034a7.88 7.88 0 0 0-3.612.766c-1.681.566-3.062 1.788-3.828 3.388a7.99 7.99 0 0 0-.876 3.94c-.109 1.642 0 3.393 0 5.144h-5.584c-.219 0-.219.109-.219.219v6.239c0 .219 0 .219.219.219H27.8v16.855c-.063.056-.102.135-.109.219H6.458a2.08 2.08 0 0 1-1.97-1.97c-.11 0-.11-.11-.11-.219V6.676c0-.109 0-.219.109-.219a2.08 2.08 0 0 1 1.971-1.97h39.62a2.08 2.08 0 0 1 1.97 1.97z" fill="#e2e2e2"/></svg>