<svg xmlns="http://www.w3.org/2000/svg" width="827" height="1226" fill="#5b7e78"  xmlns:v="https://vecta.io/nano"><path d="M570.718 377.065c-2.208.212.611 19.679-4.989 47.42-2.12 10.532-3.168 10.919-4.988 21.214a176.79 176.79 0 0 0-2.495 37.437c1.135 37.437 4.989 78.618 4.989 78.618 4.24 45.199 6.36 67.786 6.235 82.362-.199 24.134 2.258 48.268 1.248 72.378-.138 3.294-.661 14.65 1.247 14.974 1.247.238 3.155-4.679 3.741-6.239 7.046-18.606.736-45.361 0-68.635-.424-13.639 2.02-13.165 2.494-32.445.511-20.428-1.534-19.33-.623-33.069 1.247-18.132 4.913-22.126 7.482-47.42.449-4.455.724-8.736 1.247-17.471 1.248-43.676 3.891-65.615-1.247-81.113-2.369-7.176-4.614-10.92-6.235-19.967-1.983-11.081-.412-15.549-2.494-28.702-1.248-7.924-3.904-19.529-5.612-19.342zm33.048 23.086c-1.908 0-3.741 7.937-7.483 23.71a238.98 238.98 0 0 0-4.988 26.206c-.649 5.341-.973 9.859-1.247 14.975 0 9.983-.985 26.343 0 51.164.723 18.307 1.097 27.454 2.494 37.437 2.245 15.961 4.041 17.533 4.988 29.949 1.073 13.915-.972 14.563-1.247 36.19-.099 8.385.35 18.481 1.247 38.684l1.248 24.958c.947 26.843-.973 26.818 0 47.421.623 13.165 2.494 23.71 6.235 44.924 1.858 10.657 3.342 17.471 4.989 17.471 1.247 0 2.319-3.632 3.741-13.727 2.125-14.875 2.959-29.906 2.494-44.925-1.147-27.453-2.282-24.77-2.494-39.932-.337-24.796 2.806-24.21 2.494-48.669-.187-14.974-1.372-15.548-2.494-46.172-.496-9.144-.496-18.309 0-27.454.611-9.608 1.509-13.252 2.494-24.958.524-6.239.848-12.029 1.247-26.205.911-32.608 1.372-48.906 0-63.643-1.247-13.29-3.142-21.015-4.988-31.198-3.741-13.727-6.236-24.958-8.73-26.206zm23.696 595.248c-.612 16.461-.499 19.701 0 23.711 1.047 8.45 3.741 20.07 6.235 19.97 1.808 0 2.981-6.32 3.741-11.24 3.742-24.52 2.333-47.815 1.248-67.382-.212-3.744-2.071-39.284 2.494-49.916a33.94 33.94 0 0 0 2.494-8.735c.484-3.311.484-6.674 0-9.984-.599-4.567-.399-14.276 0-33.693.137-6.239.437-15.861 1.247-27.454l1.247-14.974c.424-4.68 1.459-17.346 1.247-48.669-.112-16.659-.511-28.239-1.247-49.916-1.01-29.5-1.608-35.802-1.247-51.163.424-17.371 1.247-29.95 1.247-29.95.574-8.673.911-10.869 1.247-18.718.512-11.793.786-17.945 0-26.206-1.172-12.392-3.018-11.631-2.494-18.719.586-7.812 2.981-10.694 3.742-21.214a111.3 111.3 0 0 0 0-11.231s-.25-13.003 0-28.702c.224-13.727.86-11.955 1.247-27.454.399-15.81.561-23.847-1.247-29.949-1.509-5.092-2.495-5.815-7.483-19.967-1.862-4.817-3.119-9.847-3.742-14.974a63.83 63.83 0 0 1 0-11.231c.898-17.983-1.571-21.127 0-34.942.599-5.241.861-4.005 2.495-13.726a315.61 315.61 0 0 0 3.741-32.446c.848-15.287-.823-15.312-1.247-43.676v-26.206c-.187-19.967-.287-29.95-1.247-41.181-1.996-23.323-4.565-22.362-3.742-34.941.549-8.274 1.896-12.279 3.742-31.197l1.247-14.975a224.58 224.58 0 0 0-1.247-37.437c-.973-8.448-2.494-21.114-4.989-21.214-.374 0-1.534.212-3.741 7.487a88.48 88.48 0 0 0-3.741 24.958v27.454 26.206 33.693c-.212 24.459-1.098 24.82-1.247 43.676-.088 11.943.286 8.561 1.247 46.173l1.247 47.42c.511 9.983.985 15.86 1.247 27.453.324 13.902.087 24.26 0 27.454-.374 14.401-.624 24.297-2.494 37.437-1.659 11.681-2.495 10.894-3.742 21.214-1.409 11.306-1.309 19.081-1.247 33.694.125 31.534-.262 17.545 0 37.437.686 52.848 2.195 57.815 1.247 83.609l-1.247 29.95-1.247 29.949c-.387 14.875-.586 22.313 0 28.702 1.247 13.377 3.18 14.563 2.494 23.71-.524 7.001-1.933 9.883-2.494 19.966-.287 5.266-.137 8.548 0 13.727.536 20.74-.661 20.266 0 29.95 1.085 15.835 4.128 15.074 6.236 36.189.848 8.498 1.122 16.222 1.247 19.966.312 9.06.461 13.59 0 18.719-.574 6.476-1.347 8.073-1.247 13.726.074 3.819.461 5.317 1.247 12.479 0 0 .411 3.744 1.247 13.727a372.99 372.99 0 0 1 0 52.412c-.873 11.156-1.472 11.231-2.494 24.958-.537 7.2-.774 13.54-1.247 26.206zm38.66-898.487c2.17-.162 5.138 10.832 6.236 16.222.757 3.698 1.174 7.458 1.247 11.232.299 17.969-.985 45.623-1.247 56.155 0 2.059.386 12.604 1.247 33.693 1.646 40.27 2.319 44.213 1.247 56.156-1.123 12.641-2.494 15.786-2.494 27.454.074 14.076 2.157 15.586 2.494 29.949.274 11.606-1.035 13.153-2.494 34.941-.337 5.092-1.135 17.284-1.247 29.95 0 4.293 0 17.583 2.494 44.924 3.192 34.13 5.088 33.169 6.235 54.908.948 17.857.412 32.52 0 43.676-.573 15.611-1.247 17.009-2.494 37.437-2.02 32.158-2.27 58.065-2.494 79.866v28.701c.661 17.708 2.12 24.197 1.247 38.685-.698 11.681-1.858 10.994-2.494 21.215-1.148 18.618 2.718 20.565 3.741 42.428 1.073 22.936-2.793 29.051 0 46.172a79.07 79.07 0 0 1-1.247 33.694c-2.182 8.897-1.896 28.938-1.247 68.634a348.05 348.05 0 0 1-3.741 58.651c-.849 5.541-2.058 12.475-3.742 12.475-3.255 0-5.961-25.964-6.236-28.697-1.783-17.621-.523-24.484-1.247-44.925-.573-16.222-1.559-16.959-2.494-33.693-.823-14.775-.399-20.266 0-51.164.911-70.306-.761-82.91-2.494-92.344a143.88 143.88 0 0 1-2.494-17.471c-1.547-21.214 2.781-35.016 4.988-47.42 3.455-19.417-1.372-18.007-2.494-62.395-.786-31.073 1.659-29.051 1.247-63.643-.424-35.34-2.956-36.613-2.494-66.139.299-18.93.548-34.791 3.741-56.155 3.954-26.431 8.381-34.205 7.483-54.908-.599-13.914-2.806-15.324-4.989-34.941-1.546-13.901-1.521-22.986-1.247-49.916l1.247-88.601 1.247-44.924c1.584-53.51 2.395-69.682 4.989-69.882zm38.661 72.378c0 12.479-2.495 28.702-1.247 44.924s3.741 38.685 3.741 46.173 0 64.89-1.247 77.369-4.989 66.139-4.989 88.601-1.247 58.951 1.247 77.52 3.742 54.758 3.742 72.228-2.494 47.42-2.494 67.387 0 38.685 1.247 62.395 2.494 37.437 3.741 46.172 2.494 12.479 1.247 21.214-4.988 27.454-4.988 36.189 2.494 51.164 2.494 67.387-2.494 58.651-6.236 71.13-3.741 19.967-4.988 19.967-6.236-28.702-4.989-48.669 0-34.941-1.247-48.668 0-51.051 0-64.204 2.494-43.115 1.247-61.833-3.741-47.421-2.494-57.404 2.494-32.445 2.494-47.42-2.494-39.933-3.741-57.403-3.741-36.189-1.247-46.173 1.247-27.453 2.494-39.932 7.483-42.429 7.483-76.122-6.236-48.668-6.236-66.139v-96.088c0-1.248 0-18.719 2.494-31.198s2.495-23.71 0-38.685c-1.91-12.824-1.91-25.86 0-38.684.312-1.872 1.946-24.646 4.989-19.967s7.483 36.813 7.483 39.933zm18.706 735.013s1.247 24.957 3.742 24.957 3.741-6.239 4.988-22.462 2.494-39.932 2.494-54.907-1.247-78.618 0-88.601 2.494-42.429 1.247-56.156-2.494-33.693-2.494-56.155l-1.247-159.731c1.247-22.462-3.217-49.804-2.232-64.204s5.811-27.205 6.497-40.183.511-53.947 0-67.761 1.971-21.314 1.971-35.041-2.495-18.718-2.495-27.454-2.494-19.966-2.494-29.949 0-22.462-1.247-28.702c-.137-.711-2.494-14.975-3.741-12.479-1.447 2.895-6.236 17.259-6.236 19.967 0 0 1.247 21.214 1.247 36.189s-2.494 29.949-2.494 43.676 4.989 82.361 4.989 93.593l1.247 96.088s0 28.701-1.247 36.189-2.694 33.069-2.495 39.933l2.495 71.13-1.248 88.601c0 12.479-3.741 49.416-3.741 65.889s3.741 43.926 3.741 60.148-2.494 31.198-2.494 43.677a243.75 243.75 0 0 0 1.247 23.748zm43.649-612.719c0 8.735 2.495 53.66 2.495 63.643v79.99s-6.236 26.081-6.236 38.56v122.295s-1.247 63.643 0 77.369 1.247 31.198 1.247 44.925-1.247 24.958-1.247 34.941v74.874s1.247 18.718 1.247 24.958c0 5.865-3.305 21.651-3.741 23.535a.17.17 0 0 1-.023.073c-.014.022-.032.04-.054.053a.17.17 0 0 1-.073.024c-.026.002-.051-.003-.075-.012-1.247-.462-2.369-5.204-3.554-9.984-1.247-4.991-1.247-7.487-1.247-13.727s1.247-9.983 2.494-22.462-1.247-58.651-1.247-64.891-2.494-28.701-2.494-34.941 0-42.428 1.247-49.916 0-33.693 1.247-46.172 1.247-137.269 1.247-137.269 0-43.676-2.494-52.412-4.988-33.693-4.988-38.685 2.494-33.693 2.494-39.932-2.494-38.685-2.494-53.66 0-22.462 2.494-28.702c1.247-3.057 4.415-18.93 7.482-17.47s6.273 20.553 6.273 24.995z"/><path d="M753.42 284.097c1.247-3.058 5.076-19.879 7.483-17.471s6.236 20.516 6.236 24.958m26.189 507.895l1.247-199.664V586.4c0-5.603-1.247-18.718-1.247-24.484s3.741-35.727 4.988-44.462c0 0 3.742-28.702 3.742-34.941s-1.247-29.95-2.495-36.19-1.247-32.445-1.247-39.932-3.741-46.173-3.741-54.908-1.247-21.214-2.494-21.214-8.73 23.71-8.73 32.445v95.527c1.439 8.436 2.272 16.964 2.494 25.519 0 11.232 2.494 37.437 2.494 43.677v82.361l-2.494 81.114L787.092 787c1.247 23.71 2.495 34.941 3.742 34.941s2.494-16.223 2.494-22.462zm32.425-316.967L827 528.685c0 8.735 0 23.71-1.247 31.197s-1.247 24.958-1.247 28.702 0 23.71-1.247 28.702-2.495 17.47-3.742 17.47-2.494-22.462-2.494-27.453-1.247-34.942-1.247-39.933-1.247-57.104 0-60.998 1.247-20.116 2.494-25.107 3.741-13.727 4.989-13.727 2.494 14.974 2.494 14.974zM607.508 854.386c0 6.24-1.247 18.719-1.247 24.958s2.494 23.71 2.494 28.702-3.742 13.227-3.118 20.964 5.612 38.935 5.612 42.679v47.421s-2.494 26.2-3.741 33.69-3.742 17.47-4.989 17.47-4.988-19.96-4.988-27.45v-41.18s-2.495-26.208 0-33.695 2.494-11.231 2.494-21.214-1.247-26.206-2.494-29.95-1.247-21.214 1.247-24.958 2.494-11.231 2.494-14.975-8.73-17.47-8.73-21.214 3.742-13.727 4.989-17.471c.611-1.834 4.302-10.095 6.235-6.239 1.247 2.496 3.742 19.305 3.742 22.462zm-24.943-14.974c1.247 4.991 2.495 19.966 2.495 24.957s-4.989 18.719-4.989 24.958 4.989 18.719 4.989 27.454-9.977 36.189-9.977 51.164 6.235 42.425 6.235 48.665v39.94c0 4.99-2.494 26.2-3.741 31.19s-3.742 17.47-6.236 17.47-6.235-11.23-7.483-21.21-1.247-58.65-1.247-58.65 4.989-24.96 6.236-34.943 1.247-19.966 0-24.958-7.483-18.718-7.483-28.701 4.989-27.454 4.989-36.189-7.483-22.463-7.483-31.198 2.494-18.718 6.236-29.949c1.658-4.992 5.088-27.941 8.729-27.454 3.941.536 8.082 24.87 8.73 27.454zm27.437-537.845V178.462s-1.247-11.618-1.247-19.105 1.247-27.454 1.247-38.685-1.247-46.959-1.247-54.683-3.741-21.439-4.989-21.439-4.988 26.206-4.988 32.445v118.351l-3.741 75.074c0 16.222 1.247 37.437 1.247 44.924s6.235 56.68 6.235 56.68l7.483-31.31a143.28 143.28 0 0 0 1.247-15.387c0-6.289-1.247-23.76-1.247-23.76zm-67.344 486.681c-1.247 0-1.497 13.427-8.73 36.189-2.619 8.248-5.238 14.463-6.236 24.958-.536 5.715-.922 9.758 0 14.974 2.744 15.487 12.833 17.82 12.471 28.702-.199 6.302-3.604 6.24-7.482 17.471-.998 2.907-2.232 7.163-3.741 23.71-1.821 20.041-2.732 30.062-1.248 36.189 2.42 9.983 5.924 12.142 7.483 23.71a68.46 68.46 0 0 1 0 17.469c0 .41-.86 18.99-2.494 56.16 0 0-.449 10.29 2.494 42.43.457 3 1.295 5.94 2.494 8.73 1.148 2.91 1.796 3.74 2.494 3.74 1.659.15 3.243-3.74 3.742-4.99 5.512-13.56 6.036-55.25 6.235-64.89.325-15.61 1.322-19.86 0-31.2-1.396-11.95-3.192-13.09-3.741-22.458-.748-12.84 2.357-15.498 4.988-34.941 2.495-18.718 3.817-28.165 1.248-36.189-1.946-6.077-6.523-15.836-8.73-28.701-.565-2.885-.565-5.851 0-8.736 1.509-7.238 6.472-11.231 8.73-13.727 4.988-5.59 5.337-13.726-1.248-51.163-6.16-35.079-7.919-37.437-8.729-37.437zm39.907-487.929c0-29.949-6.235-74.874-6.235-86.105s-1.248-54.907 1.247-69.882 0-84.857 0-84.857l-3.742-29.95s0-3.744-1.247-3.744-3.741 14.975-3.741 14.975l-2.494 63.643c0 16.223 4.988 58.651 3.741 74.874l-6.236 73.626s-1.247 47.77 0 57.578 3.742 37.263 3.742 37.263 2.494 9.983 3.741 9.983h1.247c1.247 0 6.236-23.71 7.483-33.694s2.494-23.71 2.494-23.71z"/><path d="M499.008 1125.18c2.495 16.22 6.236 29.95 8.73 29.95s9.977-12.48 11.224-27.45c1.247-14.98 2.495-46.18 1.247-59.9-1.247-13.73 0-33.7 0-47.42 0-13.73 2.495-41.184 2.495-56.158s0-43.677-3.742-53.66-8.73-13.54-8.106-19.867 5.612-11.331 6.859-13.826 6.236-13.727 6.236-22.462-6.236-32.446-7.483-42.429-2.494-51.164-2.494-62.395 2.494-41.181 3.741-47.42 3.742-34.941 1.247-46.172-6.235-18.719-6.235-29.95 1.247-33.693 4.988-47.42 6.236-52.412 6.236-66.139.212-60.935-1.247-71.13c-1.247-8.735-8.73-47.42-9.977-51.164s-1.247-8.735-3.742-8.735-8.729 29.949-9.977 46.172-3.741 52.412-3.741 61.147 1.247 52.412 2.494 62.395 4.989 46.172 7.483 53.66a51.79 51.79 0 0 1 1.247 23.71c-1.247 6.239-6.235 31.197-7.483 41.18s1.248 36.19 2.495 41.181 2.494 42.429 2.494 48.668 0 36.189-2.494 43.677-4.989 26.206-4.989 37.437 2.494 28.701 6.236 34.941c2.494 3.743 6.235 11.231 6.235 14.975s-9.977 13.726-11.224 19.966 1.247 214.638 1.247 214.638zm44.897-447.996c0 9.984-2.495 31.198-3.742 31.198s-7.482-29.95-7.482-33.693 2.494-8.736 3.741-12.479 3.741-6.24 4.988-6.24 2.495 21.214 2.495 21.214zm-1.247-37.436c1.247 0 7.482-48.668 8.729-68.635s3.742-47.42 3.742-61.147-2.495-56.155-4.989-69.882-4.988-29.95-4.988-47.42-1.247-34.941 1.247-47.42 4.988-36.189 4.988-44.925 0-49.916-2.494-64.89-6.235-48.668-6.235-59.9 1.247-51.163 2.494-62.394 2.494-47.421 0-58.652-2.494-36.189-3.742-36.189-2.494 3.744-2.494 9.983l-1.247 132.278c0 32.445-3.741 72.378-3.741 98.584s-2.495 42.428-1.247 56.155 6.235 39.933 6.235 53.66-4.988 38.685-7.483 58.651-1.247 86.567 0 110.04 2.495 47.195 4.989 67.162c1.445 11.751 3.527 23.415 6.236 34.941zM510.232 4.567c1.248 0 2.495 46.172 2.495 63.643s0 48.756-1.247 48.668-4.989-26.206-4.989-46.172 3.741-66.139 3.741-66.139z"/><path d="M507.738 363.962c1.247 0 7.483-17.47 8.73-29.949s2.494-46.173 2.494-59.9-1.247-47.42-3.741-62.394-3.741-42.429-4.988-54.908-2.495-24.771-3.742-24.234-2.494 20.49-2.494 30.473l-1.247 87.353c-1.247 14.975-4.989 42.429-3.742 57.404s8.73 56.155 8.73 56.155zM477.77.15a.15.15 0 0 1 .15-.15c.039 0 .077.016.106.044s.043.066.043.106c1.247 5.141 3.48 44.924 3.48 53.111 0 8.735-1.247 43.677-2.494 43.677s-3.742-28.702-3.742-46.172c0-16.148 2.133-46.097 2.457-50.615zm7.52 231.535c2.494 22.462 4.989 53.66 3.742 73.626s-8.73 61.147-9.977 61.147-13.719-38.685-12.471-59.899 2.494-76.122 4.988-97.336c1.347-11.406 4.477-84.096 7.483-77.37 2.581 5.79 5.088 89.462 6.235 99.832zM446.53 7.812c0-.112.174-.125.187 0 .549 4.892 3.654 32.72 3.654 42.94 0 11.231-3.741 49.142-3.741 49.142s-3.742-39.159-3.742-52.886c0-12.367 3.031-34.854 3.642-39.197zm.1 112.81c1.247 0 8.729 82.361 9.977 97.336s4.302 94.84 1.521 111.063-8.019 33.693-9.752 34.941-11.723-24.958-12.97-38.685 0-76.121 1.247-93.592 9.977-111.063 9.977-111.063zm1.247 262.059c2.494 0 11.548 44.313 11.386 54.608s-.162 121.346-2.657 140.064-7.482 80.327-8.729 80.09-7.483-42.653-8.73-70.107-7.483-81.113-6.236-109.815 3.742-52.412 7.483-67.387 7.483-27.453 7.483-27.453zm28.746-1.248c2.432 0 11.161 37.437 13.656 57.403s2.494 74.874 2.494 74.874 0 31.198-2.494 46.172-7.483 61.147-7.483 69.883v18.718c0 4.992 6.236 18.719 6.236 22.462v24.958s-4.989 49.916-4.989 64.891 6.236 44.924 6.236 56.155v26.206c0 8.736 1.247 17.471 0 21.215s-9.977 13.727-9.977 18.718 6.235 16.223 7.482 19.967 4.989 18.531 4.989 23.622l-2.494 204.743s-1.247 21.21-3.742 31.2c-2.494 9.98-3.741 23.71-7.482 23.71s-8.73-21.22-9.977-33.7c-1.247-12.47-2.495-47.42-2.495-62.39l-1.247-175.954s2.495-16.223 6.236-21.215 4.988-11.231 3.741-14.974-6.235-12.479-7.482-17.471-2.495-18.319-2.495-24.758 3.742-37.637 6.236-47.62 4.988-28.702 4.988-37.437-3.741-28.702-6.235-34.941-4.989-24.684-4.989-32.932 7.483-19.48 8.73-34.455 2.494-21.214-1.247-37.437-6.236-54.907-6.236-67.386-1.247-74.874-1.247-83.61 3.742-49.916 4.989-57.403 6.298-21.214 6.298-21.214zm-27.499 285.768c2.494 0 8.73 22.463 8.73 33.694s-6.236 33.693-6.236 47.42c0 0 1.247 48.668 3.741 61.147s6.236 41.181 4.989 47.42-9.977 17.471-8.73 24.958 7.483 23.71 7.483 31.197L460.348 1084l-1.247 77.37c0 7.49-1.247 26.21-2.494 32.44-1.248 6.24-3.742 19.97-6.236 19.97s-9.977-23.71-11.224-34.94-4.989-57.4-4.989-72.38V916.781c0-8.735 1.248-21.214 3.742-26.206s4.988-7.487 4.988-12.479-3.741-13.727-6.235-18.718-3.742-14.763-2.495-24.222l8.73-66.875c1.247-13.727 2.494-39.933-1.247-49.916 0 0-6.235-17.47-4.988-27.454s2.494-9.983 6.235-16.222 6.236-7.488 6.236-7.488zM256.282 378.313c2.207.212-.599 19.679 4.989 47.42 2.12 10.533 3.167 10.919 4.988 21.215 2.157 12.355 2.993 24.904 2.494 37.436-1.122 37.437-4.988 78.618-4.988 78.618-4.24 45.199-6.361 67.786-6.236 82.361.2 24.135-2.257 48.269-1.247 72.379.137 3.294.661 14.65-1.247 14.974-1.247.237-3.155-4.679-3.741-6.239-7.047-18.606-.736-45.361 0-68.635.424-13.639-2.021-13.165-2.495-32.445-.498-20.428 1.547-19.33.624-33.069-1.247-18.132-4.914-22.126-7.483-47.42-.449-4.455-.723-8.736-1.247-17.471-1.247-43.676-3.878-65.615 1.247-81.113 2.382-7.176 4.615-10.92 6.236-19.967 1.983-11.081.411-15.549 2.494-28.701 1.247-7.925 3.904-19.53 5.612-19.343zm-33.048 23.086c1.908 0 3.741 7.937 7.483 23.71a238.98 238.98 0 0 1 4.988 26.206c.649 5.341.973 9.859 1.247 14.975 0 9.983.985 26.343 0 51.164-.723 18.306-1.085 27.454-2.494 37.437-2.245 15.96-4.028 17.533-4.988 29.949-1.073 13.914.972 14.563 1.247 36.189.099 8.386.436 16.61-.462 36.814-.761 17.221-1.721 18.007-2.033 26.829-.947 26.843.973 26.818 0 47.421-.623 13.165-2.494 23.71-6.235 44.924-1.858 10.657-3.342 17.471-4.989 17.471-1.247 0-2.319-3.632-3.741-13.727-2.125-14.875-2.959-29.906-2.494-44.925 1.147-27.454 2.282-24.771 2.494-39.933.349-24.795-2.806-24.209-2.494-48.668.187-14.974 1.372-15.548 2.494-46.172a249.93 249.93 0 0 0 0-27.454c-.611-9.609-1.509-13.252-2.494-24.958-.524-6.239-.848-12.029-1.247-26.206-.911-32.607-1.36-48.905 0-63.643 1.247-13.29 3.142-21.014 4.988-31.197 3.742-13.727 6.236-24.958 8.73-26.206zm-23.696 595.248c.624 16.463.499 19.703 0 23.713-1.047 8.45-3.741 20.06-6.235 19.96-1.808 0-2.981-6.31-3.742-11.23-3.803-24.52-2.332-47.817-1.247-67.384.212-3.744 2.071-39.284-2.494-49.916-1.219-2.787-2.058-5.725-2.494-8.736a34.93 34.93 0 0 1 0-9.983c.599-4.567.399-14.276 0-33.693-.125-6.24-.437-15.861-1.247-27.454l-1.247-14.975c-.424-4.679-1.459-17.345-1.247-48.668.112-16.659.511-28.24 1.247-49.916 1.01-29.5 1.621-35.802 1.247-51.163-.412-17.371-1.247-29.95-1.247-29.95-.574-8.673-.911-10.869-1.247-18.718-.512-11.793-.786-17.945 0-26.206 1.172-12.392 3.018-11.631 2.494-18.719-.586-7.812-2.968-10.694-3.742-21.214a111.3 111.3 0 0 1 0-11.231s.25-13.003 0-28.702c-.212-13.727-.86-11.955-1.247-27.454-.399-15.811-.548-23.847 1.247-29.949 1.509-5.092 2.495-5.815 7.483-19.967 3.378-8.295 4.663-17.295 3.741-26.205-.885-17.983 1.572-21.127 0-34.942-.598-5.241-.86-4.005-2.494-13.727-1.806-10.743-3.055-21.572-3.741-32.445-.848-15.287.823-15.312 1.247-43.676.187-12.13-.15-10.533 0-26.206.187-19.967.287-29.95 1.247-41.181 1.996-23.323 4.577-22.362 3.741-34.941-.548-8.274-1.895-12.279-3.741-31.198l-1.247-14.974a224.58 224.58 0 0 1 1.247-37.437c.973-8.448 2.432-21.114 4.989-21.214.374 0 1.534.212 3.741 7.487a88.48 88.48 0 0 1 3.741 24.958v27.454 26.205 33.694c.212 24.459 1.098 24.82 1.247 43.676.088 11.943-.286 8.561-1.247 46.172l-1.247 47.421c-.511 9.983-.985 15.86-1.247 27.453-.324 13.902-.087 24.26 0 27.454.374 14.401.624 24.297 2.494 37.437 1.659 11.68 2.495 10.894 3.742 21.214 1.409 11.306 1.309 19.081 1.247 33.694v37.437c-.686 52.848-2.195 57.815-1.247 83.609l1.247 29.949 1.247 29.95c.386 14.875.586 22.312 0 28.702-1.247 13.377-3.18 14.563-2.494 23.71.523 7 1.933 9.883 2.494 19.966.287 5.266.137 8.548 0 13.727-.536 20.74.661 20.266 0 29.95-1.073 15.835-4.116 15.074-6.236 36.189-.848 8.498-1.122 16.222-1.247 19.966-.299 9.06-.461 13.59 0 18.718.574 6.477 1.347 8.074 1.247 13.727-.062 3.819-.449 5.316-1.247 12.479 0 0-.411 3.744-1.247 13.727a372.99 372.99 0 0 0 0 52.412c.873 11.156 1.472 11.231 2.494 24.958.537 7.2.773 13.54 1.247 26.206zM160.878 98.16c-2.17-.162-5.138 10.831-6.236 16.222-.757 3.698-1.174 7.458-1.247 11.232-.299 17.969.986 45.623 1.247 56.155 0 2.059-.386 12.604-1.247 33.693-1.646 40.27-2.319 44.213-1.247 56.156 1.135 12.641 2.494 15.786 2.494 27.453 0 14.077-2.157 15.587-2.494 29.95-.274 11.605 1.035 13.153 2.494 34.941.337 5.092 1.148 17.284 1.248 29.95 0 4.293 0 17.583-2.495 44.924-3.192 34.13-5.088 33.169-6.235 54.908-.948 17.857-.412 32.52 0 43.676.573 15.611 1.247 17.009 2.494 37.437 2.02 32.158 2.282 58.065 2.494 79.866v28.701c-.648 17.708-2.12 24.197-1.247 38.685.698 11.681 1.858 10.994 2.494 21.215 1.148 18.618-2.718 20.565-3.741 42.428-1.073 22.936 2.794 29.051 0 46.172-.807 4.532-1.224 9.124-1.247 13.727-.021 6.735.817 13.444 2.494 19.967 2.195 8.897 1.896 28.938 1.247 68.634a347.95 347.95 0 0 0 3.742 58.651c.848 5.541 2.07 12.477 3.741 12.477 3.255 0 5.961-25.966 6.235-28.699 1.784-17.621.524-24.484 1.248-44.925.573-16.222 1.558-16.959 2.494-33.693.823-14.775.399-20.266 0-51.164-.911-70.306.761-82.91 2.494-92.344 1.194-5.766 2.027-11.601 2.494-17.471 1.547-21.214-2.781-35.016-4.988-47.42-3.455-19.417 1.372-18.007 2.494-62.395.786-31.073-1.659-29.051-1.247-63.643.424-35.34 2.956-36.613 2.494-66.139-.299-18.93-.549-34.791-3.741-56.155-3.954-26.431-8.368-34.205-7.483-54.908.599-13.914 2.806-15.324 4.989-34.941 1.546-13.901 1.521-22.986 1.247-49.916l-1.247-88.601-1.248-44.924c-1.583-53.51-2.394-69.683-4.988-69.882zm-38.661 72.378c0 12.479 2.494 28.702 1.247 44.924s-3.741 38.685-3.741 46.172 0 64.891 1.247 77.37 4.989 66.139 4.989 88.601 1.247 58.951-1.248 77.519-3.741 54.758-3.741 72.229 2.494 47.42 2.494 67.386 0 38.685-1.247 62.395-2.494 37.437-3.741 46.173-2.494 12.479-1.247 21.214 4.988 27.454 4.988 36.189-2.494 51.164-2.494 67.387 2.494 58.651 6.236 71.13 3.741 19.966 4.988 19.966 6.236-28.702 4.988-48.668 0-34.941 1.248-48.668 0-51.052 0-64.204-2.495-43.115-1.248-61.834 3.742-47.42 2.495-57.403-2.495-32.445-2.495-47.42 2.495-39.933 3.742-57.404 3.741-36.189 1.247-46.172-1.247-27.454-2.494-39.933-7.483-42.428-7.483-76.121 6.236-48.669 6.236-66.139v-96.088c0-1.248 0-18.719-2.495-31.198s-2.494-23.71 0-38.685c1.911-12.824 1.911-25.86 0-38.685-.311-1.871-1.945-24.646-4.988-19.966s-7.483 36.813-7.483 39.933zM103.511 905.55s-1.247 24.958-3.742 24.958-3.741-6.239-4.988-22.462-2.494-39.933-2.494-54.907 1.247-78.618 0-88.601-2.494-42.429-1.247-56.156 2.494-33.693 2.494-56.155l1.247-159.731c-1.247-22.462 3.23-49.804 2.232-64.205s-5.762-27.204-6.485-40.145-.524-53.946 0-67.76-1.983-21.315-1.983-35.041 2.494-18.719 2.494-27.454 2.494-19.967 2.494-29.95 0-22.462 1.247-28.702c.137-.711 2.494-14.974 3.741-12.478 1.447 2.895 6.236 17.258 6.236 19.966 0 0-1.247 21.214-1.247 36.189s2.494 29.95 2.494 43.676-4.989 82.362-4.989 93.593l-1.247 96.088s0 28.702 1.247 36.189 2.694 33.069 2.495 39.933l-2.495 71.13 1.248 88.601c0 12.479 3.741 49.417 3.741 65.889s-3.741 43.926-3.741 60.149 2.494 31.197 2.494 43.676-1.247 23.71-1.247 23.71zM59.862 292.832c0 8.735-2.494 53.66-2.494 63.643v79.99s6.236 26.081 6.236 38.56v122.294s1.247 63.643 0 77.37-1.247 31.198-1.247 44.925 1.247 24.958 1.247 34.941v74.874s-1.247 18.718-1.247 24.958c0 5.865 3.305 21.651 3.741 23.535 0 .1.125.187.225.137 1.247-.461 2.37-5.203 3.554-9.983 1.247-4.991 1.247-7.487 1.247-13.727s-1.247-9.983-2.494-22.462 1.247-58.651 1.247-64.891 2.494-28.701 2.494-34.941 0-42.428-1.247-49.916 0-33.693-1.247-46.172-1.247-137.269-1.247-137.269 0-43.677 2.494-52.412 4.989-33.693 4.989-38.685-2.494-33.693-2.494-39.932 2.494-38.685 2.494-53.66 0-22.462-2.494-28.702c-1.247-3.057-4.415-18.93-7.483-17.47s-6.273 20.552-6.273 24.995z"/><path d="M73.58 285.345c-1.247-3.058-5.076-19.879-7.483-17.471s-6.236 20.515-6.236 24.958M33.672 800.727l-1.247-199.664v-13.415c0-5.603 1.247-18.718 1.247-24.484s-3.741-35.727-4.988-44.462c0 0-3.741-28.702-3.741-34.941s1.247-29.95 2.494-36.19 1.247-32.445 1.247-39.932 3.741-46.173 3.741-54.908 1.247-21.214 2.494-21.214 8.73 23.71 8.73 32.445v95.527a179.4 179.4 0 0 0-2.494 25.519c0 11.232-2.494 37.437-2.494 43.677v82.361l2.494 81.114-1.247 96.088c-1.247 23.71-2.494 34.941-3.741 34.941s-2.494-16.222-2.494-22.462zM1.247 483.76L0 529.933c0 8.735 0 23.71 1.247 31.197s1.247 24.958 1.247 28.702 0 23.71 1.247 28.701 2.494 17.471 3.741 17.471 2.494-22.462 2.494-27.454 1.247-34.941 1.247-39.932 1.247-57.104 0-60.998-1.247-20.116-2.494-25.108-3.741-13.726-4.988-13.726-2.494 14.974-2.494 14.974zm218.245 371.874c0 6.24 1.247 18.719 1.247 24.958s-2.494 23.71-2.494 28.702 3.742 13.227 3.118 20.964-5.612 38.935-5.612 42.679v47.423s2.494 26.2 3.741 33.69 3.742 17.47 4.989 17.47 4.988-19.97 4.988-27.45v-41.18s2.494-26.21 0-33.697-2.494-11.231-2.494-21.214 1.247-26.206 2.494-29.95 1.247-21.214-1.247-24.958-2.494-11.231-2.494-14.975 8.73-17.47 8.73-21.214-3.742-13.727-4.989-17.471c-.611-1.834-4.302-10.095-6.235-6.239-1.247 2.496-3.742 19.305-3.742 22.462zm24.943-14.975c-1.247 4.992-2.494 19.967-2.494 24.958s4.988 18.719 4.988 24.958-4.988 18.719-4.988 27.454 9.976 36.189 9.976 51.164-6.235 42.427-6.235 48.667v39.93c0 5 2.494 26.21 3.741 31.2s3.742 17.47 6.236 17.47 6.235-11.23 7.483-21.21c1.247-9.99 1.247-58.65 1.247-58.65s-4.989-24.96-6.236-34.945-1.247-19.966 0-24.958 7.483-18.718 7.483-28.702-4.989-27.453-4.989-36.189 7.483-22.462 7.483-31.197-2.494-18.719-6.236-29.95c-1.658-4.991-5.075-27.94-8.729-27.453-3.941.536-8.082 24.87-8.73 27.453zm-27.437-537.844V179.71s1.247-11.618 1.247-19.105-1.247-27.454-1.247-38.685 1.247-46.959 1.247-54.683 3.742-21.439 4.989-21.439 4.988 26.206 4.988 32.445v118.351l3.741 75.074c0 16.222-1.247 37.437-1.247 44.924s-6.235 56.68-6.235 56.68l-7.483-31.335a143.28 143.28 0 0 1-1.247-15.387c0-6.264 1.247-23.735 1.247-23.735zm67.345 486.681c1.247 0 1.496 13.427 8.729 36.189 2.619 8.248 5.251 14.463 6.236 24.958.536 5.715.923 9.758 0 14.974-2.731 15.487-12.82 17.82-12.471 28.702.199 6.302 3.604 6.24 7.482 17.471.998 2.907 2.245 7.163 3.742 23.71 1.821 20.041 2.731 30.062 1.247 36.189-2.419 9.983-5.924 12.142-7.483 23.71-.739 5.801-.739 11.671 0 17.471 0 .41.861 18.99 2.494 56.15 0 0 .449 10.3-2.494 42.43a35.81 35.81 0 0 1-2.494 8.74c-1.147 2.91-1.796 3.74-2.494 3.74-1.659.15-3.243-3.74-3.742-4.99-5.512-13.56-6.036-55.26-6.235-64.89-.324-15.61-1.322-19.87 0-31.2 1.397-11.95 3.192-13.09 3.741-22.46.748-12.841-2.357-15.499-4.988-34.941-2.495-18.718-3.816-28.165-1.247-36.189 1.945-6.077 6.522-15.836 8.729-28.701a22.45 22.45 0 0 0 0-8.736c-1.496-7.238-6.472-11.231-8.729-13.727-4.989-5.59-5.326-13.726 1.247-51.163 6.16-35.079 7.919-37.437 8.73-37.437zm-39.908-487.929c0-29.949 6.235-74.874 6.235-86.105s1.248-54.907-1.247-69.882 0-84.857 0-84.857l3.742-29.95s0-3.744 1.247-3.744 3.741 14.975 3.741 14.975l2.494 63.643c0 16.223-4.988 58.651-3.741 74.874l6.236 73.626s1.247 47.77 0 57.578-3.742 37.263-3.742 37.263-2.494 9.983-3.741 9.983h-1.247c-1.247 0-6.236-23.71-7.483-33.694s-2.494-23.71-2.494-23.71z"/><path d="M327.992 1126.43c-2.495 16.22-6.236 29.95-8.73 29.95s-9.977-12.48-11.224-27.46c-1.247-14.97-2.494-46.17-1.247-59.89 1.247-13.73 0-33.7 0-47.43 0-13.72-2.495-41.176-2.495-56.15s0-43.677 3.742-53.66 8.73-13.54 8.106-19.867-5.612-11.331-6.859-13.826-6.236-13.727-6.236-22.463 6.236-32.445 7.483-42.428 2.494-51.164 2.494-62.395-2.494-41.181-3.741-47.42-3.741-34.941-1.247-46.173 6.235-18.718 6.235-29.949-1.247-33.693-4.988-47.42-6.236-52.412-6.236-66.139-.212-60.935 1.247-71.13c1.248-8.736 8.73-47.42 9.977-51.164s1.247-8.735 3.742-8.735 8.729 29.949 9.977 46.172 3.741 52.412 3.741 61.147-1.247 52.412-2.494 62.395-4.989 46.172-7.483 53.66a51.79 51.79 0 0 0-1.247 23.71c1.247 6.239 6.235 31.197 7.483 41.18s-1.248 36.189-2.495 41.181-2.494 42.429-2.494 48.668 0 36.189 2.494 43.677 4.989 26.205 4.989 37.437-2.494 28.701-6.236 34.941c-2.494 3.743-6.235 11.231-6.235 14.975s9.977 13.726 11.224 19.966-1.247 214.64-1.247 214.64zm-44.897-447.998c0 9.984 2.495 31.198 3.742 31.198s7.482-29.95 7.482-33.693-2.494-8.736-3.741-12.479-3.741-6.24-4.988-6.24-2.495 21.214-2.495 21.214zm1.247-37.436c-1.247 0-7.482-48.668-8.729-68.635s-3.742-47.42-3.742-61.147 2.495-56.155 4.989-69.882 4.988-29.95 4.988-47.42 1.247-34.942-1.247-47.42-4.988-36.19-4.988-44.925 0-49.916 2.494-64.891 6.235-48.668 6.235-59.899-1.247-51.164-2.494-62.395-2.494-47.42 0-58.651 2.494-36.189 3.742-36.189 2.494 3.744 2.494 9.983l1.247 132.278c0 32.445 3.741 72.378 3.741 98.584s2.495 42.428 1.247 56.155-6.235 39.933-6.235 53.66 4.988 38.684 7.483 58.651 1.247 86.567 0 110.039-2.495 47.196-4.989 67.162a327.29 327.29 0 0 1-6.236 34.942zM316.767 5.815c-1.247 0-2.494 46.172-2.494 63.643s0 48.755 1.247 48.668 4.989-26.206 4.989-46.172-3.742-66.139-3.742-66.139z"/><path d="M319.262 365.21c-1.247 0-7.483-17.47-8.73-29.949s-2.494-46.173-2.494-59.9 1.247-47.42 3.741-62.395 3.741-42.428 4.989-54.907 2.494-24.771 3.741-24.234 2.494 20.49 2.494 30.473l1.247 87.353c1.247 14.975 4.989 42.429 3.742 57.404s-8.73 56.155-8.73 56.155zM349.193 1.398a.15.15 0 0 0-.3 0c-1.247 5.141-3.479 44.924-3.479 53.111 0 8.735 1.247 43.676 2.494 43.676s3.741-28.702 3.741-46.172c.038-16.148-2.082-46.097-2.456-50.615zm-7.483 231.535c-2.494 22.462-4.989 53.659-3.742 73.626s8.73 61.147 9.977 61.147 13.719-38.685 12.471-59.899-2.494-76.122-4.988-97.336c-1.347-11.406-4.477-84.096-7.483-77.37-2.581 5.79-5.088 89.462-6.235 99.832zM380.47 9.06c0-.112-.174-.125-.187 0-.549 4.892-3.654 32.72-3.654 42.94 0 11.231 3.741 49.142 3.741 49.142s3.742-39.159 3.742-52.886c0-12.367-3.031-34.854-3.642-39.196zm-.1 112.81c-1.247 0-8.729 82.361-9.977 97.336s-4.302 94.84-1.521 111.063 8.019 33.693 9.765 34.941 11.71-24.958 12.957-38.685 0-76.122-1.247-93.592-9.977-111.063-9.977-111.063zm-1.247 262.059c-2.494 0-11.548 44.313-11.386 54.608s.162 121.345 2.657 140.064 7.482 80.327 8.729 80.09 7.483-42.653 8.73-70.107 7.483-81.113 6.236-109.815-3.742-52.412-7.483-67.387-7.483-27.453-7.483-27.453zm-28.684-1.248c-2.432 0-11.161 37.437-13.656 57.403s-2.494 74.874-2.494 74.874 0 31.197 2.494 46.172 7.483 61.147 7.483 69.882v18.719c0 4.992-6.235 18.718-6.235 22.462v24.958s4.988 49.916 4.988 64.891-6.236 44.924-6.236 56.155v26.206c0 8.735-1.247 17.471 0 21.214s9.977 13.727 9.977 18.719-6.235 16.223-7.482 19.966-4.989 18.532-4.989 23.623l2.494 204.745s1.248 21.21 3.742 31.2c2.494 9.98 3.741 23.71 7.482 23.71s8.73-21.22 9.977-33.7 2.495-47.42 2.495-62.39l1.247-175.957s-2.495-16.222-6.236-21.214-4.988-11.231-3.741-14.975 6.235-12.479 7.482-17.47 2.495-18.319 2.495-24.759-3.742-37.636-6.236-47.619-4.988-28.702-4.988-37.437 3.741-28.702 6.235-34.941 4.989-24.684 4.989-32.933-7.483-19.479-8.73-34.454-2.494-21.214 1.247-37.437 6.236-54.908 6.236-67.387l1.247-83.609c0-8.735-3.742-49.916-4.989-57.403s-6.298-21.214-6.298-21.214zm27.437 285.768c-2.494 0-8.73 22.463-8.73 33.694s6.236 33.693 6.236 47.42c0 0-1.247 48.668-3.742 61.147s-6.235 41.18-4.988 47.42 9.977 17.47 8.73 24.958-7.483 23.71-7.483 31.197l-1.247 170.965 1.247 77.37c0 7.48 1.247 26.2 2.494 32.44s3.742 19.97 6.236 19.97 9.977-23.71 11.224-34.94 4.988-57.41 4.988-72.38V918.029c0-8.735-1.247-21.214-3.741-26.206s-4.988-7.487-4.988-12.479 3.741-13.727 6.235-18.718 3.742-14.763 2.494-24.222l-8.729-66.875c-1.247-13.727-2.495-39.933 1.247-49.916 0 0 6.235-17.47 4.988-27.454s-2.494-9.983-6.235-16.222-6.236-7.488-6.236-7.488zM413.581 1.26c2.494.187 3.741 22.649 3.741 27.641s-2.494 23.448-3.741 23.585-3.741-19.842-3.741-24.833 1.247-26.58 3.741-26.393zm0 97.624c2.494-.1 7.483 78.518 8.73 108.468l3.741 87.353c0 17.47-4.988 46.172-6.235 53.659s-4.989 24.459-6.236 24.085-7.483-26.58-8.73-36.564-4.988-38.684-3.741-53.659 4.988-97.336 4.988-109.815 4.989-73.439 7.483-73.526zm0 283.797c2.494.624 11.224 33.069 11.224 40.556s1.247 68.635-1.247 83.61-3.741 26.206-3.741 38.685 1.247 27.453 1.247 38.684 0 27.454-2.495 32.446-3.741 13.203-4.988 13.465-4.988-19.705-6.236-25.944-1.247-22.462-1.247-27.454 1.247-27.454 1.247-33.693-4.988-39.933-4.988-46.173-1.247-52.91 0-64.516 1.247-20.341 3.741-30.324 4.989-19.966 7.483-19.342zm0 263.93c3.741 0 9.977 38.685 9.977 44.924s-6.236 41.181-9.977 41.181-9.977-31.197-9.977-39.933 4.989-46.172 9.977-46.172zm0 100.044c2.494-.212 4.988 49.704 7.483 60.935s7.482 36.189 7.482 44.924c0 9.984-12.471 16.223-11.224 24.958 0 0 4.989 14.975 6.236 22.462s2.494 27.454 2.494 34.942l-1.247 245.834s-1.247 28.7-3.741 33.69c-2.495 5-4.989 11.16-7.483 10.57-2.494-.58-7.483-9.32-8.73-18.05-1.247-8.74-3.741-128.54-3.741-155.99l1.247-138.517c1.247-11.231 7.483-29.949 7.483-34.941s-6.236-8.735-7.483-16.222-2.494-14.975-1.247-26.206 4.988-26.206 6.235-36.189 3.742-51.988 6.236-52.2z"/></svg>