<svg xmlns="http://www.w3.org/2000/svg" width="133.793" height="68.463"  xmlns:v="https://vecta.io/nano"><path d="M10.447 3.243L0 64.024h21.3l2.985-28.356 11.669 29.851 12.618-30.8 3.392 30.119 19.808-.814-7.191-60.781H46.536l-8.818 23.476-8.683-23.471zM75.749 0h58.044v68.463H75.214z" fill="#fff"/><g fill="#60c7cd"><path d="M126.092 22.194s-2.713-2.93-11.4-2.794c-4.083 0-7.992 1.653-10.837 4.582s-4.382 6.885-4.263 10.966c.161 7.734 6.628 13.391 14.979 13.793 9.5-.773 11.518-2.261 11.518-2.261l-1.085 17.773c-4.282 1.171-8.736 1.584-13.16 1.221-6.784-.678-32.623-6.105-32.08-30.526s19.056-32.7 33.437-32.426c7.479-.374 10.4 1.27 10.4 1.27z"/><path d="M103.163 4.561L28.83 7.139l63.606 1.482h10.726z"/><path d="M103.163 4.561L28.83 7.139l63.606 1.482h10.726zm-16.252 9.544l-58.122 2.328 58.845 1.927zm-5.38 9.875c-.482.08-52.985 2.328-52.985 2.328l53.307 2.49zm-1.043 11.721L28.07 37.708l54.189 2.007zm2.89 13.246l-51.861 1.525 54.992 2.007zm10.846 10.672l-62.225 1.049 70.541 2.737z"/></g></svg>