<svg xmlns="http://www.w3.org/2000/svg" viewBox="0 0 133.79 68.46"  fill="#fff" xmlns:v="https://vecta.io/nano"><path d="M64.89 5.89l-19.6.68 1.25-3.33h18.04l.31 2.65zm1.07 9.06l-24.18.96 3.15-8.4 20.21.47.82 6.97zm1.15 9.69L38 25.91l3.4-9.07 24.86.82zM34.09 60.75l3.75.15-1.89 4.62-1.86-4.77zm34.38-24.59l-19.65.75-.25-2.19-.92 2.28-19.58.75 19 .7-4.82 11.71-10.73.31 10.48.38-4 9.72-4 .07-9.76-25L21.3 64H0L10.45 3.24H29l1.42 3.83v.1l6.94 18.75-8.88.38 39 1.82zm1.56 13.18l-19.75.58-1.29-11.44 19.85.73 1.19 10.13zm1.27 10.67l-19.85.33-1.03-9.18 19.91.73.97 8.12zm.47 4.01l-19.81.82-.38-3.41 19.98.78.21 1.81z"/><path d="M80.33 28.73a44.61 44.61 0 0 0-.57 6.27v.78l-4.28.16.06-7.39zM81.44 24l-5.88.28v-6.3l8.26.27A31.14 31.14 0 0 0 81.44 24zm5.16-9.88l-11 .44V8.23l16.75.39a28.32 28.32 0 0 0-5.75 5.5zM83 49l-7.66.23.08-9.73 4.56.17A25.5 25.5 0 0 0 83 49zm10.88 10.63l-18.6.31.06-7.87 10 .37a31.14 31.14 0 0 0 8.54 7.19zM133.79 0v68.46H75.21l.05-6.11 27.17 1.06a47.21 47.21 0 0 0 9.4 2.06A37.92 37.92 0 0 0 125 64.25l1.09-17.77s-2 1.49-11.52 2.26c-8.35-.4-14.82-6.06-15-13.79v-.44a15.1 15.1 0 0 1 15.1-15.11c8.69-.14 11.4 2.79 11.4 2.79l-2.47-18.4s-2.92-1.64-10.4-1.27a37.16 37.16 0 0 0-13.14 2.15h0l-24.34.84V0zM30.49 7.18l-1.66-.04 1.63-.06.03.1z"/><path d="M30.49 7.18l-1.66-.04 1.63-.06.03.1zm3.49 9.42l-.14-.37M38 25.91l-.31.81-.29-.79zm-3.91 34.84l-.05-.11"/></svg>