<svg xmlns="http://www.w3.org/2000/svg" width="627" height="1098" fill="none"  xmlns:v="https://vecta.io/nano"><g stroke="#cfcfcf"><g stroke-width="6" stroke-miterlimit="10" stroke-linecap="round"><path d="M517.341 845.473c7.91 19.328 20.693 56.173 13.39 84.56s-13.997 62.205-41.373 91.197M292.274 898.701c27.983 0 38.324-3.029 56.574 0s65.698 11.473 76.039 18.109m-66.092-169.511c12.77 0 24.933-1.809 31.628 0s15.82 8.99 15.82 8.99m-214.75 238.22c11.15-13.011 19.167-39.471 18.56-57.686s-1.013-50.128-16.535-68.356c-11.555-14.194-17.869-18.215-32.164-19.019-5.885-.71-20.991 6.943-25.255 19.528 0 0-9.733 66.037-14.701 76.706-2.299 5.311-3.061 39.033 1.573 50.459s28.745 50.509 45.78 65.609c17.036 15.11 62.042 33.82 110.098 32.61 48.056-1.2 74.645 0 103.64-6.03s38.717-13.29 81.305-17.52c42.588-4.22 49.878-7.85 74.216-3.63l24.933 4.53s29.401-22.65 43.398-65.53c13.998-42.874 19.061-72.078 17.035-91.606s-4.669-50.329-25.755-67.244-64.329-26.377-69.963-38.453-9.113-22.143-10.34-40.867-33.225-57.816-51.88-66.841-88.988-49.336-106.643-83.98-37.525-75.902-41.79-86.772-22.3-30.422-40.753-26.188-57.789 18.334-52.309 78.516 84.342 124.019 84.342 124.019M118.099 971.515c-18.608-11.308-41.981-20.77-46.639-44.687s4.205-71.892 3.014-91.006-13.58-58.988-9.328-73.69 18.274-24.295 27.197-24.969 52.512 12.289 54.954 50.743 1.417 45.905 1.191 56.775l-.107 8.564m92.49 172.385c-8.339-15.56-17.941-28.543-21.443-32.47s-16.88-15.554-16.88-15.554M387.469 786.9c-33.296-10.574-50.176-19.788-73.454-11.473s-57.943 27.63-86.534 30.197-79.529-18.724-79.529-18.724"/><path d="M117.074 743.632c11.031-2.72 32.7-16.382 39.693-28.305s23.73-29.902 17.19-56.775-37.108-27.489-39.693-27.489-80.756 56.775-101.592 77.77-31.176 37.591-29.496 67.492 9.066 47.018 22.455 55.061 47.115 36.265 47.115 36.265m261.807-172.396c-20.252 7.392-29.353 16.311-31.486 26.022s-3.8 15.246-3.645 26.566v33.474"/></g><g stroke-width="3"><path d="M162.295 922.996c7.91.603 16.832-14.691 16.832-24.154s-6.897-31.356-13.592-31.191-16.416 1.384-15.606 28.565 12.366 26.78 12.366 26.78zM90.318 754.077c6.171 0 18.655 6.446 17.226 27.985s-6.076 22.012-12.163 22.556-17.44-15.305-15.403-27.382.453-23.159 10.34-23.159z" stroke-miterlimit="10"/><path d="M99.241 655.441c4.455 4.613 13.378 14.88 23.718 12.266s18.453-8.859 21.443-13.082 3.871-19.564-7.898-23.467" stroke-miterlimit="10" stroke-linecap="round"/></g></g><path d="M327.48 222.6c30.24 0 57.96 7 83.16 21s45.08 34.16 59.64 60.48c14.56 25.76 21.84 56.28 21.84 91.56 0 25.76-7.28 51.24-21.84 76.44-14 25.2-33.32 46.48-57.96 63.84-24.08 16.8-50.4 26.6-78.96 29.4v99.12c0 4.48-1.68 8.4-5.04 11.76-2.8 3.36-6.44 5.04-10.92 5.04-5.04 0-9.24-1.68-12.6-5.04-2.8-3.36-3.92-7.28-3.36-11.76V551.88c0-4.48 1.68-8.4 5.04-11.76s7.28-5.04 11.76-5.04c25.76-1.68 49-8.96 69.72-21.84 21.28-12.88 37.8-29.68 49.56-50.4 12.32-20.72 18.48-43.12 18.48-67.2 0-27.44-5.6-51.8-16.8-73.08-11.2-21.84-26.6-38.64-46.2-50.4s-41.44-17.64-65.52-17.64c-25.2 0-49 6.16-71.4 18.48-22.4 11.76-40.88 27.72-55.44 47.88-3.92 5.04-8.68 7.56-14.28 7.56-3.36 0-5.88-.56-7.56-1.68-6.16-3.36-9.24-8.12-9.24-14.28 0-3.92 1.12-7.28 3.36-10.08 17.36-24.08 39.76-43.4 67.2-57.96s56.56-21.84 87.36-21.84zm-5.04 546c7.28 0 12.88 2.52 16.8 7.56 3.92 4.48 5.88 10.64 5.88 18.48v19.32c0 7.84-1.96 14.28-5.88 19.32-3.92 4.48-9.52 6.72-16.8 6.72h-3.36c-7.28 0-12.88-2.24-16.8-6.72-3.92-5.04-5.88-11.48-5.88-19.32v-19.32c0-7.84 1.96-14 5.88-18.48 3.92-5.04 9.52-7.56 16.8-7.56h3.36z" fill="#cfcfcf"/></svg>